<?xml version="1.0" encoding="UTF-8" standalone="no"?><!DOCTYPE svg PUBLIC "-//W3C//DTD SVG 1.1//EN" "http://www.w3.org/Graphics/SVG/1.1/DTD/svg11.dtd"><svg width="100%" height="100%" viewBox="0 0 2048 512" version="1.1" xmlns="http://www.w3.org/2000/svg" xmlns:xlink="http://www.w3.org/1999/xlink" xml:space="preserve" xmlns:serif="http://www.serif.com/" style="fill-rule:evenodd;clip-rule:evenodd;stroke-linejoin:round;stroke-miterlimit:2;"><rect x="702.006" y="231" width="128" height="58.109"/><rect x="862.006" y="231" width="128" height="58.109"/><rect x="1022.006" y="231" width="128" height="58.109"/><rect x="1182.006" y="231" width="128" height="58.109"/><rect x="62.006" y="231" width="128" height="58.109"/><rect x="222.006" y="231" width="128" height="58.109"/><rect x="382.006" y="231" width="128" height="58.109"/><rect x="542.006" y="231" width="128" height="58.109"/><rect x="1342.006" y="231" width="128" height="58.109"/><rect x="1502.006" y="231" width="128" height="58.109"/><rect x="1662.006" y="231" width="128" height="58.109"/><rect x="1822.006" y="231" width="128" height="58.109"/><path d="M1980,260l-41.357,41.089l-221.434,-220l41.357,-41.089l221.434,220Z"/><path d="M1950.006,289.799l-41.357,-41.089l-191.44,190.201l41.357,41.089l191.44,-190.201Z"/></svg>