<?xml version="1.0" encoding="UTF-8" standalone="no"?><!DOCTYPE svg PUBLIC "-//W3C//DTD SVG 1.1//EN" "http://www.w3.org/Graphics/SVG/1.1/DTD/svg11.dtd"><svg width="100%" height="100%" viewBox="0 0 1024 1024" version="1.1" xmlns="http://www.w3.org/2000/svg" xmlns:xlink="http://www.w3.org/1999/xlink" xml:space="preserve" xmlns:serif="http://www.serif.com/" style="fill-rule:evenodd;clip-rule:evenodd;stroke-linejoin:round;stroke-miterlimit:2;"><path d="M704.302,280.316c-6.296,-5.776 -6.929,-15.485 -1.437,-22.03c11.878,-14.206 31.659,-37.78 43.769,-52.212c2.79,-3.326 6.812,-5.375 11.143,-5.677c4.33,-0.302 8.598,1.168 11.823,4.073c82.874,75.629 130.401,182.827 130.401,295.529c0,220.766 -179.234,400 -400,400c-220.766,0 -400,-179.234 -400,-400c0,-220.914 179.086,-400 400,-400l0,100c-165.685,0 -300,134.315 -300,300c0,165.575 134.425,300 300,300c165.575,0 300,-134.425 300,-300c-0,-83.563 -34.838,-163.092 -95.698,-219.684Z"/><path d="M637.933,137.2c4.029,3.022 6.4,7.764 6.4,12.8c-0,5.036 -2.371,9.778 -6.4,12.8c-28.136,21.102 -84.411,63.309 -117.333,88c-4.848,3.636 -11.335,4.221 -16.755,1.511c-5.421,-2.71 -8.845,-8.25 -8.845,-14.311c-0,-45.933 -0,-130.067 -0,-176c0,-6.06 3.424,-11.601 8.845,-14.311c5.421,-2.71 11.907,-2.125 16.755,1.511c32.922,24.691 89.197,66.898 117.333,88Z"/></svg>